<?xml version="1.0" encoding="UTF-8"?>
<svg id="Capa_1" xmlns="http://www.w3.org/2000/svg" version="1.1" viewBox="0 0 1080 1080">
  <!-- Generator: Adobe Illustrator 29.8.2, SVG Export Plug-In . SVG Version: 2.1.1 Build 3)  -->
  <defs>
    <style>
      .st0 {
        fill: #33060c;
      }
    </style>
  </defs>
  <g>
    <polygon class="st0" points="69.82 867.33 129.52 867.33 129.52 856.94 69.82 856.94 69.82 815.88 136.78 815.88 136.78 805.32 57.62 805.32 57.62 920.77 139.25 920.77 139.25 910.21 69.82 910.21 69.82 867.33"/>
    <polygon class="st0" points="149.8 815.88 190.38 815.88 190.38 920.77 202.58 920.77 202.58 815.88 243.15 815.88 243.15 805.32 149.8 805.32 149.8 815.88"/>
    <polygon class="st0" points="347.05 856.78 274.81 856.78 274.81 805.32 262.61 805.32 262.61 920.77 274.81 920.77 274.81 867.5 347.05 867.5 347.05 920.77 359.09 920.77 359.09 805.32 347.05 805.32 347.05 856.78"/>
    <path class="st0" d="M520.54,886.3c-3.96,4.62-8.36,8.06-13.19,10.31-4.84,2.26-10.12,3.38-15.83,3.38-5.39,0-10.34-.88-14.84-2.64-4.51-1.76-8.41-4.29-11.71-7.59-3.3-3.3-5.86-7.2-7.67-11.71-1.81-4.51-2.72-9.51-2.72-15.01s.91-10.5,2.72-15.01c1.81-4.51,4.37-8.41,7.67-11.71,3.3-3.3,7.2-5.83,11.71-7.59,4.51-1.76,9.45-2.64,14.84-2.64,5.71,0,10.99,1.13,15.83,3.38,4.84,2.26,9.23,5.64,13.19,10.14l17.15-15.83c-5.5-6.7-12.29-11.79-20.37-15.25-8.08-3.46-17.13-5.19-27.13-5.19-9.02,0-17.32,1.46-24.9,4.37-7.59,2.91-14.21,7.07-19.87,12.45-5.67,5.39-10.06,11.71-13.2,18.97-3.13,7.26-4.7,15.23-4.7,23.91s1.57,16.66,4.7,23.91c3.14,7.26,7.5,13.58,13.11,18.97,5.61,5.39,12.23,9.54,19.87,12.45,7.64,2.91,15.91,4.37,24.82,4.37,10.11,0,19.21-1.76,27.29-5.28,8.08-3.52,14.87-8.63,20.37-15.34l-17.15-15.83Z"/>
    <path class="st0" d="M588.15,805.32l-51.45,115.44h27.38l10.29-24.74h53.51l10.25,24.74h28.04l-51.62-115.44h-26.39ZM582.8,875.74l18.37-44.18,18.3,44.18h-36.68Z"/>
    <polygon class="st0" points="757.69 875.36 700.3 805.32 678.2 805.32 678.2 920.77 704.59 920.77 704.59 850.7 762.14 920.77 784.08 920.77 784.08 805.32 757.69 805.32 757.69 875.36"/>
    <path class="st0" d="M847.73,805.32l-51.45,115.44h27.38l10.29-24.74h53.51l10.25,24.74h28.04l-51.62-115.44h-26.39ZM842.38,875.74l18.37-44.18,18.3,44.18h-36.68Z"/>
    <polygon class="st0" points="964.5 899 964.5 805.32 937.78 805.32 937.78 920.77 1022.38 920.77 1022.38 899 964.5 899"/>
  </g>
  <g>
    <path class="st0" d="M314.92,977.18h-14.81v49.47h4.98v-20.63h9.83c5.38,0,9.48-1.25,12.31-3.75,2.83-2.5,4.25-6.05,4.25-10.63s-1.37-8.02-4.1-10.6c-2.74-2.57-6.89-3.86-12.46-3.86ZM323.69,999.18c-1.87,1.75-4.93,2.63-9.19,2.63h-9.4v-20.49h9.4c4.26,0,7.32.88,9.19,2.63,1.87,1.75,2.81,4.32,2.81,7.68s-.94,5.79-2.81,7.54Z"/>
    <path class="st0" d="M353.8,978.31l-18.25,48.35h5.26l4.49-12.07h22.53l4.42,12.07h5.33l-18.25-48.35h-5.54ZM346.71,1010.66l9.9-26.67,9.75,26.67h-19.65Z"/>
    <polygon class="st0" points="416.53 1018.66 389.44 977.25 384.46 977.25 384.46 1026.66 389.44 1026.66 389.44 985.32 416.53 1026.66 421.51 1026.66 421.51 977.25 416.53 977.25 416.53 1018.66"/>
    <path class="st0" d="M446.71,978.31l-18.25,48.35h5.26l4.49-12.07h22.53l4.42,12.07h5.33l-18.25-48.35h-5.54ZM439.62,1010.66l9.9-26.67,9.75,26.67h-19.65Z"/>
    <polygon class="st0" points="501.44 1020.55 483.19 978.24 477.37 978.24 477.37 1026.66 482.35 1026.66 482.35 986.24 499.19 1026.66 503.61 1026.66 520.39 986.1 520.39 1026.66 525.3 1026.66 525.3 978.24 519.54 978.24 501.44 1020.55"/>
    <path class="st0" d="M550.56,978.31l-18.25,48.35h5.26l4.49-12.07h22.53l4.42,12.07h5.33l-18.25-48.35h-5.54ZM543.47,1010.66l9.9-26.67,9.75,26.67h-19.65Z"/>
    <path class="st0" d="M616.03,1013.64c3.84-3.44,7.04-7.18,9.61-11.23,2.57-4.05,3.86-8.01,3.86-11.89,0-4.58-1.36-8.07-4.07-10.46-2.71-2.39-6.27-3.58-10.67-3.58-4.82,0-8.73,1.46-11.72,4.39-2.99,2.92-4.66,7.08-4.98,12.46h4.84c.23-3.88,1.3-6.96,3.19-9.23,1.89-2.27,4.67-3.4,8.32-3.4s6.13.95,7.72,2.84c1.59,1.89,2.39,4.36,2.39,7.4,0,4.82-2.47,9.99-7.4,15.51-4.93,5.52-11.54,11.02-19.82,16.49v3.51h33.61v-4.07h-26.59c3.97-2.39,7.88-5.3,11.72-8.74Z"/>
    <path class="st0" d="M655.26,976.55c-6.36,0-10.79,2.2-13.3,6.6-2.5,4.4-3.75,10.57-3.75,18.53s1.25,14.21,3.75,18.63c2.5,4.42,6.93,6.63,13.3,6.63s10.74-2.21,13.26-6.63c2.53-4.42,3.79-10.63,3.79-18.63s-1.26-14.13-3.79-18.53c-2.53-4.4-6.95-6.6-13.26-6.6ZM666.45,1012.66c-.63,2.97-1.84,5.32-3.62,7.05-1.78,1.73-4.3,2.6-7.58,2.6s-5.87-.86-7.65-2.6c-1.78-1.73-2.98-4.08-3.62-7.05-.63-2.97-.95-6.63-.95-10.98s.32-7.93.95-10.88c.63-2.95,1.84-5.29,3.62-7.02,1.78-1.73,4.32-2.6,7.65-2.6s5.8.87,7.58,2.6c1.78,1.73,2.98,4.07,3.62,7.02.63,2.95.95,6.57.95,10.88s-.32,8.01-.95,10.98Z"/>
    <path class="st0" d="M698.42,1013.64c3.84-3.44,7.04-7.18,9.61-11.23,2.57-4.05,3.86-8.01,3.86-11.89,0-4.58-1.36-8.07-4.07-10.46-2.71-2.39-6.27-3.58-10.67-3.58-4.82,0-8.73,1.46-11.72,4.39-2.99,2.92-4.66,7.08-4.98,12.46h4.84c.23-3.88,1.3-6.96,3.19-9.23,1.89-2.27,4.67-3.4,8.32-3.4s6.13.95,7.72,2.84c1.59,1.89,2.39,4.36,2.39,7.4,0,4.82-2.47,9.99-7.4,15.51-4.93,5.52-11.54,11.02-19.82,16.49v3.51h33.61v-4.07h-26.59c3.97-2.39,7.88-5.3,11.72-8.74Z"/>
    <path class="st0" d="M751.61,998.27c-2.81-2.97-6.71-4.46-11.72-4.46-3.65,0-6.81.9-9.47,2.7-2.67,1.8-4.33,4.25-4.98,7.33-.05-.7-.07-1.73-.07-3.09,0-7.16,1.13-12.37,3.4-15.65,2.27-3.27,5.55-4.91,9.86-4.91,3.13,0,5.59.88,7.37,2.63,1.78,1.75,2.88,4.22,3.3,7.4h4.7c-.47-4.21-1.97-7.61-4.49-10.21s-6.06-3.89-10.6-3.89c-6.36,0-10.95,2.23-13.75,6.7-2.81,4.47-4.21,11.03-4.21,19.68,0,7.58,1.3,13.58,3.9,18,2.59,4.42,7.43,6.63,14.49,6.63,3.7,0,6.78-.75,9.26-2.25,2.48-1.5,4.3-3.48,5.47-5.96,1.17-2.48,1.76-5.24,1.76-8.28,0-5.29-1.41-9.41-4.21-12.39ZM747.85,1019.61c-2.18,2.18-5.06,3.26-8.67,3.26-2.99,0-5.47-.62-7.44-1.86-1.96-1.24-3.42-2.88-4.35-4.91-.94-2.03-1.4-4.22-1.4-6.56,0-2.57.63-4.74,1.89-6.49,1.26-1.75,2.88-3.08,4.84-3.97,1.96-.89,4.02-1.33,6.18-1.33,3.79,0,6.77,1.1,8.95,3.3,2.18,2.2,3.26,5.38,3.26,9.54,0,3.84-1.09,6.84-3.26,9.02Z"/>
  </g>
  <g>
    <path class="st0" d="M346.47,396.9c8.77,2.55,17.84,5.19,27.04,5.51,1.11.04,2.2.06,3.33.06,35.21,0,79.62-18.39,126.64-37.85,6.9-2.86,14.69-6.08,22.36-9.2v-49.47l-194.03,87.06c5.02,1.09,9.9,2.51,14.66,3.9Z"/>
    <path class="st0" d="M461.12,484.58l64.71,39.49v-46.64c-19.02,5.25-35.85,7.8-51.41,7.8-4.46,0-8.92-.22-13.3-.65Z"/>
    <polygon class="st0" points="525.84 739.31 525.84 572.57 321.62 451.42 525.84 739.31"/>
    <path class="st0" d="M526.47,741.29l-207.08-291.93,207.08,122.85v169.08Z"/>
    <path class="st0" d="M656.97,320.85c12.5,0,24.26,1.58,35.01,4.69L528.36,52.85v250.33l63.39,28.44c24.86-7.25,46.19-10.78,65.22-10.78Z"/>
    <path class="st0" d="M528.36,305.95v48.45c17.95-7.26,38.78-15.35,59.68-21.67l-59.68-26.78Z"/>
    <path class="st0" d="M528.36,476.72v47.35l152.89-93.3c-31.03.48-63.12,12.97-97.04,26.17-18.17,7.07-36.96,14.38-55.85,19.78Z"/>
    <path class="st0" d="M400.35,429.21c41.15,0,84.39-17.13,128.77-36.21,3.04-1.31,6.08-2.62,9.11-3.93,28.87-12.47,56.14-24.25,81.74-30.48,5.31-1.29,10.45-2.4,15.34-3.31l-.07-.03,4.08-.68c9.85-1.63,18.98-2.45,27.15-2.45,19.01,0,35.41,4.11,53.21,13.33,11.72,6.07,23.64,14.23,34.21,21.9-13.78-24.38-31.15-40.47-52.96-49.1-12.26-4.86-26.2-7.32-41.43-7.32-11.97,0-32.05,3.14-58.08,9.07-7.07,1.61-47.29,15.63-71.32,25.4-7.09,2.88-14.26,5.85-21.19,8.72-47.74,19.76-92.83,38.43-129.54,38.43-1.23,0-2.4-.02-3.6-.06-10.14-.35-19.67-3.12-28.89-5.8-8.44-2.45-16.43-4.77-24.79-5.36,10.47,8.66,21.77,15.36,33.65,19.93,13.86,5.34,28.45,7.93,44.62,7.93Z"/>
    <path class="st0" d="M669.07,368.97h-.18c-.6-.01-1.21-.02-1.81-.02-40.88,0-84.92,19.37-127.52,38.1-4,1.76-7.99,3.51-11.95,5.24-20.25,8.83-43.63,18.69-64.87,23.97h-.06s-.06.02-.06.02l-63.68,9.37c11.46,2.95,23.51,4.45,35.87,4.45,32.65,0,64.76-10,91.86-19.78,11.25-4.06,22.63-8.49,33.65-12.78,41.33-16.08,80.37-31.28,119.03-31.28,12.61,0,24.22,1.61,35.51,4.92,6.63,1.94,11.91,4.68,17.02,7.32.61.32,1.23.63,1.84.95,4,2.06,8.01,4.01,12.64,5.39-4.88-5.44-10.04-10.3-15.39-14.49-17.88-14.02-38.13-21.02-61.9-21.39Z"/>
    <path class="st0" d="M670.09,403.72c-34.85,0-72.42,16.52-108.75,32.49-12.61,5.54-24.52,10.78-36.31,15.35-11.17,4.33-20.74,7.47-29.26,9.58h-.06s-.06.02-.06.02l-53.47,7.87c9.45,2.36,19.44,3.56,29.72,3.56,15.67,0,32.79-2.73,52.33-8.34,18.3-5.26,36.81-12.46,54.71-19.43,35.28-13.73,68.61-26.7,101.63-26.7,3.39,0,6.86.16,10.31.46,6.93.62,13.67,1.87,20.04,3.74,5.67,1.66,10.18,4,14.54,6.26,3.82,1.98,7.48,3.88,11.7,5.2-9.21-10.14-19.5-17.78-30.62-22.73-11.12-4.95-23.04-7.35-36.44-7.35Z"/>
    <path class="st0" d="M322.64,391.49c1.62.17,3.25.4,4.87.68l198.33-88.98V52.85l-203.19,338.64Z"/>
    <polygon class="st0" points="528.36 572.57 528.36 739.31 732.58 451.42 528.36 572.57"/>
  </g>
</svg>