
        <svg xmlns="http://www.w3.org/2000/svg" xmlns:xlink="http://www.w3.org/1999/xlink" version="1.1" width="3171.4285714285716" height="2590.5211125903224" viewBox="0 0 3171.4285714285716 2590.5211125903224">
			
			<g transform="scale(8.571428571428571) translate(10, 10)">
				<defs id="SvgjsDefs1029"/><g id="SvgjsG1030" featureKey="symbolFeature-0" transform="matrix(2.1432943095842565,0,0,2.1432943095842565,66.65217369975602,-13.931413012297668)" fill="#000"><path xmlns="http://www.w3.org/2000/svg" d="M63.512,31.339c-0.505-0.216-1.096,0.014-1.315,0.521c-0.219,0.507,0.014,1.095,0.521,1.315  c11.235,4.862,18.494,15.912,18.494,28.152c0,12.67-7.726,23.568-18.712,28.235V75.5c0-0.446-0.295-0.839-0.725-0.962L58.5,73.603  V46c0-0.019-0.008-0.035-0.009-0.054c-0.002-0.042-0.012-0.081-0.02-0.122c-0.014-0.079-0.035-0.153-0.067-0.225  c-0.017-0.039-0.035-0.074-0.057-0.11c-0.042-0.07-0.092-0.13-0.15-0.188c-0.027-0.027-0.05-0.056-0.081-0.08  c-0.094-0.075-0.198-0.138-0.318-0.175c-0.409-0.129-1.892-0.58-3.3-0.845V28.5c0-1.103-0.897-2-2-2h-1v-19c0-0.552-0.448-1-1-1  S49.5,6.948,49.5,7.5v26h-1.002c-1.654,0-2.998,1.346-2.998,3v24.812c-2.079,0.312-4.062,0.682-4.177,0.702  C40.848,62.1,40.5,62.515,40.5,63v27.287c-11.983-4.171-20.609-15.573-20.609-28.959c0-12.228,7.25-23.274,18.469-28.141  c0.507-0.22,0.739-0.809,0.52-1.315c-0.219-0.507-0.81-0.739-1.315-0.52c-11.951,5.185-19.673,16.951-19.673,29.976  c0,18.009,14.651,32.66,32.66,32.66c18.008,0,32.66-14.651,32.66-32.66C83.211,48.29,75.479,36.519,63.512,31.339z M47.5,60.5  c0-0.552,0.449-1,1-1h1V61v0.044c-0.524-0.085-1.068-0.102-1.618-0.037c-0.124,0.015-0.253,0.031-0.382,0.047V60.5z M47.5,40.5  c0-0.551,0.449-1,1-1h1v2h-1c-0.352,0-0.686,0.072-1,0.184V40.5z M54.457,46.235c0.105,0.022,0.21,0.044,0.318,0.068  c0.112,0.025,0.226,0.052,0.34,0.08c0.085,0.02,0.17,0.04,0.255,0.061c0.203,0.05,0.406,0.103,0.605,0.156  c0.045,0.012,0.088,0.025,0.133,0.037c0.133,0.036,0.264,0.073,0.392,0.109v1.921c-1.279-0.347-3.113-0.767-4.121-0.643  c-0.316,0.038-0.605,0.129-0.879,0.242v-0.798c0-0.493,0.146-1.339,1.121-1.458c0.089-0.011,0.204-0.01,0.33-0.004  c0.062,0.003,0.134,0.011,0.203,0.017c0.072,0.007,0.144,0.013,0.224,0.023c0.088,0.011,0.181,0.025,0.276,0.04  c0.075,0.012,0.15,0.024,0.229,0.038c0.102,0.018,0.206,0.037,0.313,0.058C54.282,46.198,54.369,46.216,54.457,46.235z M42.5,79.842  c1.137-0.194,3.245-0.542,5-0.771v1.983c-1.693,0.214-3.738,0.546-5,0.759V79.842z M42.5,83.842c1.138-0.194,3.247-0.542,5-0.771  v1.984c-1.693,0.214-3.738,0.546-5,0.759V83.842z M47.5,76.5v0.554c-1.693,0.214-3.738,0.546-5,0.759v-1.971  c1.235-0.21,3.615-0.602,5.441-0.827C47.659,75.504,47.5,76.011,47.5,76.5z M42.5,87.842c1.137-0.194,3.245-0.542,5-0.771v1.983  c-1.693,0.214-3.738,0.546-5,0.759V87.842z M49.5,84.5c0-0.327,0.366-0.923,1.067-1.428c1.087-0.784,2.441-1.016,3.659-0.61  l6.274,1.793v1.92l-5.684-1.622c-1.752-0.583-3.726-0.268-5.316,0.832V84.5z M60.5,82.174l-5.684-1.622  c-1.752-0.584-3.726-0.269-5.316,0.832V80.5c0-0.327,0.366-0.923,1.067-1.428c1.087-0.784,2.441-1.015,3.659-0.61l6.274,1.793  V82.174z M49.886,73.138c-0.036-0.012-0.064-0.036-0.101-0.044c-0.618-0.133-1.258-0.162-1.903-0.087  c-1.756,0.209-4.024,0.577-5.382,0.806v-1.971c1.275-0.217,3.772-0.629,5.618-0.849c1.63-0.193,2.881,0.672,3.258,1.499  C50.86,72.638,50.36,72.857,49.886,73.138z M52.5,44.016c-0.04,0.003-0.083,0.004-0.121,0.008c-0.316,0.038-0.605,0.129-0.879,0.242  V43.5h1V44.016z M56.5,56.668c-1.279-0.346-3.113-0.765-4.12-0.645c-0.316,0.038-0.605,0.128-0.88,0.242v-0.799  c0-0.493,0.146-1.338,1.121-1.457c0.668-0.081,2.473,0.334,3.879,0.737V56.668z M51.5,59.466c0-0.493,0.146-1.338,1.121-1.457  c0.668-0.081,2.473,0.334,3.879,0.737v1.922c-1.278-0.346-3.111-0.766-4.12-0.644c-0.315,0.038-0.606,0.12-0.88,0.23V59.466z   M56.5,52.669c-1.279-0.345-3.113-0.763-4.12-0.645c-0.316,0.038-0.605,0.128-0.88,0.242v-0.799c0-0.493,0.146-1.339,1.121-1.458  c0.664-0.082,2.472,0.333,3.879,0.736V52.669z M52.621,62.009c0.668-0.081,2.473,0.334,3.879,0.737v1.92  c-0.94-0.256-2.179-0.551-3.173-0.638c-0.204-0.636-0.587-1.238-1.16-1.746c-0.032-0.029-0.069-0.053-0.102-0.081  C52.219,62.101,52.402,62.035,52.621,62.009z M53.5,66.058c0.849,0.12,2.019,0.406,3,0.687v1.92c-0.887-0.242-2.038-0.517-3-0.62  V66.058z M51.5,41.5v-1h1v1H51.5z M51.5,38.5v-1h1v1H51.5z M52.5,32.5h-1v-1h1V32.5z M52.5,34.5v1h-1v-1H52.5z M47.5,44.5  c0-0.551,0.449-1,1-1h1v2h-1c-0.352,0-0.686,0.072-1,0.184V44.5z M47.5,48.5c0-0.551,0.449-1,1-1h1V49v0.5h-1  c-0.352,0-0.686,0.072-1,0.184V48.5z M47.5,52.5c0-0.552,0.449-1,1-1h1v2h-1c-0.352,0-0.686,0.072-1,0.184V52.5z M47.5,56.5  c0-0.552,0.449-1,1-1h1v2h-1c-0.352,0-0.686,0.072-1,0.184V56.5z M51.5,69.806c-0.974-0.618-2.23-0.968-3.618-0.799  c-1.756,0.209-4.024,0.577-5.382,0.806v-1.971c1.275-0.217,3.772-0.629,5.618-0.849c1.009-0.127,2.032,0.171,2.721,0.783  C51.259,68.149,51.5,68.595,51.5,69V69.806z M47.5,91.071v0.764c-0.886-0.088-1.759-0.22-2.622-0.382  C45.738,91.318,46.659,91.181,47.5,91.071z M49.5,88.5c0-0.327,0.366-0.923,1.067-1.428c1.087-0.784,2.441-1.014,3.659-0.61  l6.274,1.793v1.919l-5.684-1.622c-1.752-0.583-3.726-0.268-5.316,0.832V88.5z M60.5,78.174l-5.684-1.622  c-1.752-0.584-3.726-0.268-5.316,0.832V76.5c0-0.327,0.366-0.923,1.067-1.428c1.087-0.784,2.441-1.015,3.659-0.61l6.274,1.792  V78.174z M54.816,72.552c-0.428-0.143-0.87-0.229-1.316-0.266v-2.227c0.849,0.12,2.019,0.406,3,0.687v2.287L54.816,72.552z   M52.5,28.5v1h-1v-1H52.5z M48.5,35.5h1v2h-1c-0.352,0-0.686,0.072-1,0.184V36.5C47.5,35.949,47.949,35.5,48.5,35.5z M48.118,62.993  c1.009-0.126,2.032,0.171,2.721,0.783C51.259,64.149,51.5,64.595,51.5,65v0.791c-1.038-0.651-2.312-0.939-3.618-0.784  c-1.756,0.209-4.024,0.577-5.382,0.806v-1.971C43.777,63.624,46.276,63.212,48.118,62.993z M49.707,91.966  c0.175-0.284,0.455-0.601,0.86-0.894c1.087-0.784,2.441-1.015,3.659-0.61l2.86,0.817c-2.107,0.459-4.292,0.708-6.535,0.708  C50.268,91.987,49.988,91.974,49.707,91.966z"/></g><g id="SvgjsG1031" featureKey="nameFeature-0" transform="matrix(1.3375115018198824,0,0,1.3375115018198824,-3.691532051154964,193.608375934286)" fill="#000"><path d="M24.12 11.440000000000001 l0 5.28 l-15.08 0 l0 6.12 l13.84 0 l0 4.88 l-13.84 0 l0 7 l15.4 0 l0 5.28 l-21.68 0 l0 -28.56 l21.36 0 z M54.375 11.440000000000001 l0 5.28 l-8.56 0 l0 23.28 l-6.28 0 l0 -23.28 l-8.56 0 l0 -5.28 l23.4 0 z M68.47 11.440000000000001 l0 10.96 l11.56 0 l0 -10.96 l6.28 0 l0 28.56 l-6.28 0 l0 -12.32 l-11.56 0 l0 12.32 l-6.28 0 l0 -28.56 l6.28 0 z M124.82000000000001 10.760000000000002 c3.3333 0 6.1332 0.94 8.4 2.82 s3.5734 4.3668 3.92 7.46 l-6.08 0 c-0.21332 -1.4133 -0.92 -2.6 -2.12 -3.56 s-2.5733 -1.44 -4.12 -1.44 c-2.4533 0 -4.36 0.88 -5.72 2.64 s-2.04 4.1468 -2.04 7.16 c0 2.9333 0.68668 5.26 2.06 6.98 s3.2733 2.58 5.7 2.58 c1.8133 0 3.28 -0.55332 4.4 -1.66 s1.8133 -2.6867 2.08 -4.74 l6.08 0 c-0.32 3.6267 -1.62 6.48 -3.9 8.56 s-5.1668 3.12 -8.66 3.12 c-4.1868 0 -7.5732 -1.38 -10.16 -4.14 s-3.88 -6.3268 -3.88 -10.7 c0 -4.4268 1.28 -8.0468 3.84 -10.86 s5.96 -4.22 10.2 -4.22 z M160.435 11.440000000000001 l10.68 28.56 l-6.52 0 l-2.16 -6.36 l-10.68 0 l-2.24 6.36 l-6.36 0 l10.84 -28.56 l6.44 0 z M157.115 18.48 l-3.72 10.48 l7.4 0 l-3.6 -10.48 l-0.08 0 z M184.37 11.440000000000001 l11.92 19.16 l0.08 0 l0 -19.16 l5.88 0 l0 28.56 l-6.28 0 l-11.88 -19.12 l-0.08 0 l0 19.12 l-5.88 0 l0 -28.56 l6.24 0 z M226.54500000000002 11.440000000000001 l10.68 28.56 l-6.52 0 l-2.16 -6.36 l-10.68 0 l-2.24 6.36 l-6.36 0 l10.84 -28.56 l6.44 0 z M223.22500000000002 18.48 l-3.72 10.48 l7.4 0 l-3.6 -10.48 l-0.08 0 z M250.52 11.440000000000001 l0 23.28 l13.92 0 l0 5.28 l-20.2 0 l0 -28.56 l6.28 0 z"/></g><g id="SvgjsG1032" featureKey="sloganFeature-0" transform="matrix(0.9062075788056404,0,0,0.9062075788056404,33.00634306735952,263.7951991159008)" fill="#000"><path d="M4.36 7.279999999999999 l0 4.56 q0.62 -0.36 1.4 -0.5 q0.58 -0.1 1.44 -0.1 l2.56 0 q1.04 0 1.63 -0.52 t0.59 -1.54 q0 -1.9 -2.22 -1.9 l-5.4 0 z M4.36 14.059999999999999 l0 3.76 l5.62 0 q0.66 0 1.26 -0.24 q0.66 -0.24 1.04 -0.7 q0.44 -0.54 0.44 -1.24 q0 -1.2 -0.94 -1.74 q-0.74 -0.44 -2.02 -0.44 l-2.56 0 q-1.72 0 -2.84 0.6 z M14.88 15.92 q0 1.4 -0.78 2.38 q-0.68 0.86 -1.92 1.3 q-1.1 0.4 -2.42 0.4 l-7.56 0 l0 -14.92 l7.56 0 q1.28 0 2.27 0.48 t1.55 1.38 q0.58 0.94 0.58 2.22 q0 0.98 -0.35 1.75 t-0.99 1.19 q0.86 0.4 1.42 1.32 q0.64 1.06 0.64 2.5 z M28.94 20 l-10.46 0 l0 -14.92 l2.18 0 l0 12.74 l8.28 0 l0 2.18 z M44.440000000000005 12.440000000000001 q0 -1.6 -0.82 -2.9 q-0.78 -1.26 -2.13 -1.98 t-2.93 -0.72 q-1.64 0 -2.99 0.74 t-2.11 2.02 q-0.78 1.34 -0.78 2.98 q0 1.56 0.84 2.88 q0.8 1.24 2.15 1.97 t2.92 0.73 t2.92 -0.76 t2.13 -2.04 q0.8 -1.34 0.8 -2.92 z M46.60000000000001 12.559999999999999 q0 2.16 -1.12 3.98 q-1.08 1.74 -2.93 2.77 t-3.99 1.03 q-2.22 0 -4.08 -1.08 q-1.82 -1.04 -2.86 -2.86 q-1.08 -1.86 -1.08 -4.08 q0 -2.14 1.14 -3.94 q1.08 -1.72 2.93 -2.73 t3.97 -1.01 q2.18 0 4.04 1.06 q1.82 1.04 2.88 2.82 q1.1 1.86 1.1 4.04 z M62.78 7 l-1.4 1.64 q-0.82 -0.84 -1.96 -1.32 t-2.4 -0.48 q-1.64 0 -2.99 0.74 t-2.11 2.02 q-0.78 1.34 -0.78 2.98 q0 1.56 0.84 2.88 q0.8 1.24 2.15 1.97 t2.91 0.73 q1.44 0 2.68 -0.62 t2.06 -1.72 l1.34 1.82 q-1.14 1.28 -2.73 1.99 t-3.37 0.71 q-2.22 0 -4.08 -1.08 q-1.82 -1.04 -2.86 -2.86 q-1.08 -1.86 -1.08 -4.08 q0 -2.14 1.14 -3.94 q1.08 -1.72 2.93 -2.73 t3.97 -1.01 q1.66 0 3.16 0.64 q1.46 0.6 2.58 1.72 z M72.52000000000001 14.02 l-4.02 5.98 l-2.18 0 l0 -14.92 l2.18 0 l0 11.14 l7.58 -11.14 l2.62 0 l-4.9 7.02 l2.68 4.02 q0.64 0.96 1.26 1.36 q0.5 0.32 1.06 0.32 l0.62 -0.02 l0 2.22 l-0.4 0 q-1 0.02 -1.46 -0.08 q-0.74 -0.12 -1.36 -0.6 q-0.7 -0.56 -1.42 -1.68 z M95.60000000000001 7 l-1.4 1.64 q-0.82 -0.84 -1.96 -1.32 t-2.4 -0.48 q-1.64 0 -2.99 0.74 t-2.11 2.02 q-0.78 1.34 -0.78 2.98 q0 1.56 0.84 2.88 q0.8 1.24 2.15 1.97 t2.91 0.73 q1.44 0 2.68 -0.62 t2.06 -1.72 l1.34 1.82 q-1.14 1.28 -2.73 1.99 t-3.37 0.71 q-2.22 0 -4.08 -1.08 q-1.82 -1.04 -2.86 -2.86 q-1.08 -1.86 -1.08 -4.08 q0 -2.14 1.14 -3.94 q1.08 -1.72 2.93 -2.73 t3.97 -1.01 q1.66 0 3.16 0.64 q1.46 0.6 2.58 1.72 z M101.3 13.4 l0 6.6 l-2.16 0 l0 -14.92 l2.16 0 l0 6.12 q0.8 -0.4 1.9 -0.4 q0.4 0 1.94 0.18 q2.16 0.26 2.92 0.26 q1.16 0 2.02 -0.38 l0 -5.78 l2.18 0 l0 14.92 l-2.18 0 l0 -6.94 q-0.86 0.38 -2.02 0.38 q-0.76 0 -2.92 -0.26 q-1.54 -0.18 -1.94 -0.18 q-1.1 0 -1.9 0.4 z M121.32 6.66 l-0.82 -1.84 l2.4 0 l7.18 15.18 l-2.44 0 l-0.98 -2.18 l-4.54 0 q-1.28 0 -2.3 0.24 q-0.9 0.22 -1.5 0.58 q-0.54 0.32 -0.72 0.66 l-0.38 0.7 l-2.36 0 z M122.91999999999999 15.620000000000001 l2.76 0 l-3.26 -6.3 l-3.3 7.14 q0.44 -0.38 1.34 -0.6 q1.02 -0.24 2.46 -0.24 z M135.02 20 l-2.14 0 l0 -14.92 l2.14 0 l0 14.92 z M139.85999999999999 7.18 l-1.74 -2.1 l2.82 0 l9.58 11.4 l0 -11.4 l2.2 0 l0 14.92 l-2.16 0 l-8.56 -10.26 l0 10.26 l-2.14 0 l0 -12.82 z M175.27999999999997 9.74 l-5.1 6.1 l-5.06 -6.1 l0 10.26 l-2.14 0 l0 -12.82 l-1.74 -2.1 l2.82 0 l6.1 7.32 l6.18 -7.32 l2.82 0 l-1.74 2.1 l0 12.82 l-2.14 0 l0 -10.26 z M184.43999999999997 14.02 l0 3.8 l9.2 0 l0 2.18 l-11.38 0 l0 -14.92 l10.5 0 l0 2.2 l-8.32 0 l0 4.52 q0.62 -0.36 1.38 -0.48 q0.56 -0.1 1.44 -0.1 l3.26 0 l0 2.22 l-3.26 0 q-0.82 0 -1.44 0.1 q-0.76 0.14 -1.38 0.48 z M208.23999999999998 7.279999999999999 l-5.26 0 l0 12.72 l-2.12 0 l0 -12.72 l-5.32 0 l0 -2.2 l12.7 0 l0 2.2 z M213.21999999999997 7.26 l0 4.96 q0.62 -0.36 1.38 -0.48 q0.56 -0.1 1.44 -0.1 l2.84 0 q1.18 0 1.84 -0.54 q0.7 -0.58 0.7 -1.74 q0 -1.1 -0.74 -1.64 q-0.64 -0.46 -1.8 -0.46 l-5.66 0 z M219.59999999999997 17.64 l-1.82 -3.82 l-1.74 0 q-0.82 0 -1.44 0.1 q-0.76 0.14 -1.38 0.48 l0 5.6 l-2.18 0 l0 -14.92 l7.84 0 q1.38 0 2.44 0.52 t1.64 1.48 q0.62 1.02 0.62 2.4 q0 1.68 -0.9 2.76 t-2.54 1.5 l1.16 2.38 q0.5 0.74 0.78 1.04 q0.34 0.38 0.65 0.51 t0.81 0.13 l0.22 0 l0.48 -0.02 l0 2.22 q-1.16 0 -1.72 -0.08 q-0.94 -0.16 -1.6 -0.62 q-0.78 -0.56 -1.32 -1.66 z M240.73999999999998 12.440000000000001 q0 -1.6 -0.82 -2.9 q-0.78 -1.26 -2.13 -1.98 t-2.93 -0.72 q-1.64 0 -2.99 0.74 t-2.11 2.02 q-0.78 1.34 -0.78 2.98 q0 1.56 0.84 2.88 q0.8 1.24 2.15 1.97 t2.92 0.73 t2.92 -0.76 t2.13 -2.04 q0.8 -1.34 0.8 -2.92 z M242.89999999999998 12.559999999999999 q0 2.16 -1.12 3.98 q-1.08 1.74 -2.93 2.77 t-3.99 1.03 q-2.22 0 -4.08 -1.08 q-1.82 -1.04 -2.86 -2.86 q-1.08 -1.86 -1.08 -4.08 q0 -2.14 1.14 -3.94 q1.08 -1.72 2.93 -2.73 t3.97 -1.01 q2.18 0 4.04 1.06 q1.82 1.04 2.88 2.82 q1.1 1.86 1.1 4.04 z M251.32 11.46 l2.64 0 q2.2 0 2.2 -2.12 q0 -1.1 -0.55 -1.59 t-1.65 -0.49 l-5.48 0 l0 4.8 q0.62 -0.36 1.4 -0.5 q0.58 -0.1 1.44 -0.1 z M248.48 20 l-2.18 0 l0 -14.92 l7.66 0 q1.32 0 2.3 0.51 t1.52 1.47 t0.54 2.27 t-0.54 2.29 t-1.53 1.51 t-2.29 0.53 l-2.64 0 q-1.72 0 -2.84 0.6 l0 5.74 z M274.42 12.440000000000001 q0 -1.6 -0.82 -2.9 q-0.78 -1.26 -2.13 -1.98 t-2.93 -0.72 q-1.64 0 -2.99 0.74 t-2.11 2.02 q-0.78 1.34 -0.78 2.98 q0 1.56 0.84 2.88 q0.8 1.24 2.15 1.97 t2.92 0.73 t2.92 -0.76 t2.13 -2.04 q0.8 -1.34 0.8 -2.92 z M276.58 12.559999999999999 q0 2.16 -1.12 3.98 q-1.08 1.74 -2.93 2.77 t-3.99 1.03 q-2.22 0 -4.08 -1.08 q-1.82 -1.04 -2.86 -2.86 q-1.08 -1.86 -1.08 -4.08 q0 -2.14 1.14 -3.94 q1.08 -1.72 2.93 -2.73 t3.97 -1.01 q2.18 0 4.04 1.06 q1.82 1.04 2.88 2.82 q1.1 1.86 1.1 4.04 z M290.44 20 l-10.46 0 l0 -14.92 l2.18 0 l0 12.74 l8.28 0 l0 2.18 z M295.17999999999995 20 l-2.14 0 l0 -14.92 l2.14 0 l0 14.92 z M311.18 15.46 q0 1.46 -0.88 2.6 q-0.86 1.08 -2.37 1.68 t-3.41 0.6 q-1.74 0 -3.38 -0.81 t-2.76 -2.25 l1.56 -1.46 q1.94 2.34 4.58 2.34 q1.16 0 2.12 -0.28 q1.06 -0.32 1.64 -0.9 q0.66 -0.64 0.66 -1.52 q0 -1.06 -0.66 -1.6 q-0.56 -0.46 -1.66 -0.6 q-0.64 -0.08 -2.1 -0.08 q-2.68 0 -4.09 -0.98 t-1.41 -2.88 q0 -1.2 0.71 -2.28 t1.95 -1.72 q1.28 -0.68 2.84 -0.68 q1.76 0 3.18 0.54 q1.52 0.58 2.82 1.82 l-1.36 1.6 q-1.22 -0.98 -2.22 -1.37 t-2.42 -0.39 q-0.82 0 -1.53 0.34 t-1.13 0.91 t-0.42 1.21 q0 1.72 3.18 1.72 q2.54 0 4.02 0.52 q1.4 0.5 2 1.52 q0.54 0.9 0.54 2.4 z"/></g>
			</g>
		</svg>
	