<?xml version="1.0" encoding="UTF-8"?>
<svg id="Capa_1" xmlns="http://www.w3.org/2000/svg" version="1.1" viewBox="0 0 1920 1080">
  <!-- Generator: Adobe Illustrator 29.8.2, SVG Export Plug-In . SVG Version: 2.1.1 Build 3)  -->
  <g>
    <path d="M703.31,456.01v24.28h-80.21v43.52h71.81v24.05h-71.81v44.21h82.73v24.28h-107.51v-160.33h104.99Z"/>
    <path d="M839.61,456.01v24.28h-46.62v136.05h-24.78v-136.05h-46.4v-24.28h117.8Z"/>
    <polygon points="960.32 456.01 960.32 525.63 882.42 525.63 882.42 456.01 857.64 456.01 857.64 616.33 882.42 616.33 882.42 549.91 960.32 549.91 960.32 616.33 985.1 616.33 985.1 456.01 960.32 456.01"/>
    <path d="M1163.23,616.04c-11.34,0-21.87-1.95-31.6-5.85-9.73-3.9-18.16-9.46-25.3-16.67-7.14-7.21-12.7-15.67-16.69-25.39-3.99-9.71-5.98-20.38-5.98-32.01s1.99-22.3,5.98-32.01c3.99-9.71,9.59-18.18,16.8-25.39,7.21-7.21,15.64-12.77,25.3-16.67,9.66-3.9,20.23-5.85,31.71-5.85,12.74,0,24.25,2.32,34.54,6.95,10.29,4.64,18.93,11.45,25.93,20.42l-21.84,21.2c-5.04-6.03-10.64-10.56-16.8-13.58-6.16-3.01-12.88-4.53-20.16-4.53-6.86,0-13.16,1.18-18.9,3.53-5.74,2.36-10.71,5.74-14.91,10.16-4.2,4.42-7.45,9.64-9.76,15.67-2.31,6.04-3.46,12.73-3.46,20.09s1.15,14.06,3.46,20.09c2.31,6.04,5.56,11.26,9.76,15.67,4.2,4.42,9.17,7.8,14.91,10.16,5.74,2.36,12.04,3.53,18.9,3.53,7.28,0,14-1.51,20.16-4.53,6.16-3.01,11.76-7.62,16.8-13.8l21.84,21.19c-7,8.98-15.64,15.82-25.93,20.53-10.29,4.71-21.87,7.06-34.75,7.06Z"/>
    <path d="M1367.9,616.04h35.7l-65.72-160.03h-33.6l-65.51,160.03h34.86l12.16-31.85,69.21-.1,12.91,31.95ZM1297.46,553.62l23.39-61.25,23.3,61.25h-46.7Z"/>
    <polygon points="1529.88 456 1529.88 553.09 1456.8 456 1428.67 456 1428.67 616.04 1462.26 616.04 1462.26 518.9 1535.55 616.04 1563.48 616.04 1563.48 456 1529.88 456"/>
    <path d="M1716.68,616.04h35.7l-65.72-160.03h-33.6l-65.51,160.03h34.86l12.46-31.85,69.51-.05,12.31,31.9ZM1646.23,553.62l23.39-61.25,23.3,61.25h-46.7Z"/>
    <path d="M1776.9,616.04v-160.03h34.02v128.26h73.71v31.77h-107.72Z"/>
  </g>
  <g>
    <path d="M606,715.63v26.27h-6.34v-62.99h18.85c7.09,0,12.38,1.64,15.86,4.91s5.23,7.77,5.23,13.49-1.8,10.35-5.41,13.54c-3.6,3.19-8.83,4.78-15.68,4.78h-12.51ZM629.68,706.92c2.38-2.23,3.57-5.44,3.57-9.61s-1.19-7.55-3.57-9.78c-2.38-2.23-6.29-3.35-11.7-3.35h-11.97v26.09h11.97c5.42,0,9.32-1.12,11.7-3.35Z"/>
    <path d="M678.84,726.21h-28.68l-5.72,15.69h-6.7l23.23-62.86h7.06l23.23,62.86h-6.79l-5.63-15.69ZM676.96,721.1l-12.42-34.67-12.6,34.67h25.02Z"/>
    <path d="M750.78,741.9h-6.34l-34.49-52.63v52.63h-6.34v-62.9h6.34l34.49,52.72v-52.72h6.34v62.9Z"/>
    <path d="M804.17,726.18h-28.68l-5.72,15.72h-6.7l23.23-62.97h7.06l23.23,62.97h-6.79l-5.63-15.72ZM802.3,721.06l-12.42-34.73-12.6,34.73h25.02Z"/>
    <path d="M889.42,678.84v63.06h-6.25v-52.82l-21.35,52.82h-5.63l-21.44-52.64v52.64h-6.34v-63.06h7.42l23.23,55.11,23.05-55.11h7.33Z"/>
    <path d="M942.36,726.18h-28.68l-5.72,15.72h-6.7l23.23-62.97h7.06l23.23,62.97h-6.79l-5.63-15.72ZM940.49,721.06l-12.42-34.73-12.6,34.73h25.02Z"/>
    <path d="M1003.29,717.18c6.28-7.03,9.43-13.61,9.43-19.74,0-3.87-1.01-7.01-3.04-9.43-2.03-2.41-5.3-3.62-9.83-3.62s-8.17,1.45-10.59,4.33c-2.41,2.89-3.77,6.81-4.07,11.75h-6.17c.42-6.85,2.53-12.14,6.34-15.86,3.81-3.72,8.79-5.58,14.92-5.58,5.6,0,10.13,1.52,13.58,4.56,3.45,3.04,5.18,7.48,5.18,13.31,0,4.94-1.64,9.99-4.91,15.14-3.28,5.15-7.36,9.92-12.24,14.3-4.88,4.38-9.86,8.09-14.92,11.12h33.86v5.18h-42.8v-4.47c10.54-6.97,18.96-13.97,25.24-21Z"/>
    <path d="M1030.13,710.55c0-9.95,1.59-17.68,4.78-23.18,3.19-5.5,8.83-8.25,16.93-8.25s13.67,2.75,16.89,8.25c3.22,5.5,4.83,13.23,4.83,23.18s-1.61,17.78-4.83,23.31c-3.22,5.53-8.85,8.3-16.89,8.3s-13.75-2.77-16.93-8.3c-3.19-5.53-4.78-13.3-4.78-23.31ZM1067.3,710.55c0-5.39-.4-9.92-1.21-13.61-.8-3.69-2.34-6.62-4.6-8.78-2.26-2.16-5.48-3.25-9.65-3.25s-7.48,1.08-9.74,3.25c-2.26,2.17-3.8,5.09-4.6,8.78-.8,3.69-1.21,8.22-1.21,13.61s.4,10.03,1.21,13.74c.8,3.72,2.34,6.66,4.6,8.82,2.26,2.17,5.51,3.25,9.74,3.25s7.39-1.08,9.65-3.25c2.26-2.16,3.8-5.1,4.6-8.82.8-3.72,1.21-8.3,1.21-13.74Z"/>
    <path d="M1108.18,717.18c6.28-7.03,9.43-13.61,9.43-19.74,0-3.87-1.01-7.01-3.04-9.43-2.03-2.41-5.3-3.62-9.83-3.62s-8.17,1.45-10.59,4.33c-2.41,2.89-3.77,6.81-4.07,11.75h-6.17c.42-6.85,2.53-12.14,6.34-15.86,3.81-3.72,8.79-5.58,14.92-5.58,5.6,0,10.13,1.52,13.58,4.56,3.45,3.04,5.18,7.48,5.18,13.31,0,4.94-1.64,9.99-4.91,15.14-3.28,5.15-7.36,9.92-12.24,14.3-4.88,4.38-9.86,8.09-14.92,11.12h33.86v5.18h-42.8v-4.47c10.54-6.97,18.96-13.97,25.24-21Z"/>
    <path d="M1167.37,686.96c-2.26-2.19-5.39-3.29-9.38-3.29-5.48,0-9.66,2.05-12.55,6.14-2.89,4.09-4.33,10.62-4.33,19.56,0,1.7.03,2.98.09,3.86.83-3.86,2.95-6.92,6.34-9.17,3.4-2.25,7.42-3.38,12.06-3.38,6.37,0,11.35,1.86,14.92,5.57,3.57,3.72,5.36,8.88,5.36,15.48,0,3.8-.75,7.25-2.23,10.35-1.49,3.1-3.81,5.59-6.97,7.46-3.16,1.87-7.09,2.81-11.79,2.81-8.99,0-15.14-2.76-18.45-8.29-3.31-5.53-4.96-13.03-4.96-22.5,0-10.82,1.79-19.02,5.36-24.61,3.57-5.59,9.41-8.38,17.51-8.38,5.78,0,10.27,1.62,13.49,4.87,3.22,3.25,5.12,7.5,5.72,12.77h-5.99c-.54-3.98-1.94-7.06-4.2-9.25ZM1143.69,728.55c1.19,2.54,3.04,4.59,5.54,6.14,2.5,1.55,5.66,2.32,9.47,2.32,4.59,0,8.26-1.36,11.03-4.08,2.77-2.72,4.15-6.48,4.15-11.27,0-5.21-1.38-9.18-4.15-11.93-2.77-2.75-6.57-4.12-11.39-4.12-2.74,0-5.36.56-7.86,1.67s-4.56,2.76-6.17,4.96c-1.61,2.19-2.41,4.9-2.41,8.12,0,2.93.59,5.66,1.79,8.2Z"/>
  </g>
  <g>
    <path d="M286.96,447.67V179.36l-216.75,361.23c2.53.2,5.03.52,7.5.96l209.25-93.89Z"/>
    <path d="M97.06,546.42c9.28,2.7,18.88,5.49,28.69,5.83,1.17.04,2.33.06,3.54.06,37.2,0,83.92-19.34,133.39-39.82,8.06-3.34,16.16-6.69,24.28-9.98v-54.85l-209.25,93.89c6.63,1.17,13.06,3.04,19.35,4.87Z"/>
    <path d="M231.69,636.5c-6.75,0-13.38-.47-19.85-1.4l75.12,45.84v-53.05c-18.33,5.17-36.79,8.61-55.27,8.61Z"/>
    <polygon points="66.66 598.03 286.96 908.6 286.96 728.72 66.66 598.03"/>
    <path d="M354.7,478.06c23.61-6.92,46.69-11.39,68.53-11.39,14.37,0,27.56,1.96,39.64,5.88l-175.92-293.19v268.31l67.74,30.39Z"/>
    <path d="M354.7,478.06l-67.74-30.39v54.85c22.67-9.2,45.45-17.92,67.74-24.45Z"/>
    <path d="M346.4,606.91c-19.53,7.6-39.4,15.33-59.44,20.98v53.05l166.41-101.55c-.91-.02-1.81-.04-2.73-.04-33.41,0-67.81,13.39-104.24,27.57Z"/>
    <polygon points="286.96 908.6 507.26 598.03 286.96 728.72 286.96 908.6"/>
    <path d="M469.84,482.39c-13.73-5.43-28.48-7.77-43.96-7.77-19.39,0-39.92,3.67-61,9.48h.01c-24.62,6.8-50.14,16.56-75.29,26.79-57.4,23.36-113.71,49.38-157.67,49.38-1.26,0-2.49-.02-3.73-.06-20.25-.71-38.06-10.71-57.27-11.77,0,0,0,0,0,0l-1.63.73.47-.78c-.58-.02-1.15-.06-1.73-.07,12.41,10.84,25.33,18.52,38.64,23.65,15.32,5.9,31.15,8.41,47.29,8.41,44.27,0,90.85-18.84,135.64-38.1,33.26-14.3,65.52-28.82,95.11-36.03,7.09-1.73,13.89-3.14,20.2-4.2h.01c10.27-1.71,19.6-2.55,28.27-2.55,20.77,0,37.8,4.81,55.22,13.84,12.74,6.6,25.7,15.46,40.49,26.35-15.83-30.29-36-48.18-59.06-57.31Z"/>
    <path d="M146.08,595.91c.96.29,1.92.55,2.88.82l-1.64-1-1.24.18Z"/>
    <path d="M501.7,537.25c-20.29-15.91-42.5-22.36-65.75-22.73h0c-.7-.01-1.41-.02-2.11-.02-47.24,0-98.65,24.56-146.88,45.59-23.67,10.32-46.58,19.79-67.86,25.08l-71.78,10.57,1.64,1c13.68,3.87,27.42,5.57,41.16,5.57,32.3,0,64.69-9.23,96.84-20.84,54.47-19.66,108.27-46.15,159.76-46.15,12.44,0,24.74,1.55,36.88,5.11,7.66,2.25,13.62,5.54,19.55,8.59,5.45,2.8,10.9,5.4,17.64,6.79-6.14-7.26-12.52-13.4-19.1-18.56Z"/>
    <path d="M475.78,558.81c-12.38-5.51-25.38-7.83-38.78-7.83-49.41,0-104.13,31.47-152.69,50.3-10.51,4.07-20.73,7.57-30.54,10.01l-60.37,8.89h.01s-1.89.29-1.89.29c1.46.45,2.93.86,4.4,1.25l.05.03c11,2.9,22.03,4.17,33.07,4.17,18.42,0,36.87-3.52,55.27-8.81,55.79-16.03,111.14-48.35,163.68-48.35,3.58,0,7.15.16,10.7.48,6.98.62,13.9,1.86,20.77,3.88,12.54,3.68,19.71,10.64,31.74,13.12-11.01-13.01-22.9-21.85-35.42-27.42Z"/>
  </g>
</svg>